<svg width="26" height="26" viewBox="0 0 26 26" fill="none" xmlns="http://www.w3.org/2000/svg">
<path fill-rule="evenodd" clip-rule="evenodd" d="M18.7186 3C20.7123 3 22.249 3.4878 23.3289 4.46339C24.4254 5.42245 24.9736 6.76178 24.9736 8.48146C24.9736 9.58933 24.7244 10.5567 24.226 11.3834C23.7442 12.1937 23.0381 12.8221 22.1077 13.2685C21.8186 13.4046 21.5078 13.5188 21.1754 13.6118C21.4715 13.6983 21.749 13.8238 22.0081 13.9878C22.5563 14.3186 23.0132 14.8311 23.3787 15.5256L24.6248 17.7579C24.8906 18.2374 25.0151 18.7087 24.9985 19.1717C24.9819 19.6181 24.7992 19.9902 24.4504 20.2878C24.1181 20.5689 23.628 20.7095 22.9801 20.7095C22.3321 20.7095 21.8004 20.5772 21.385 20.3126C20.9863 20.048 20.6292 19.6346 20.3135 19.0724L18.0458 14.9303C17.8464 14.5666 17.5889 14.3185 17.2732 14.1862C16.9742 14.0374 16.6253 13.963 16.2266 13.963H14.8565V17.609C14.8565 19.7255 13.9836 21.3295 12.7874 22.3878C11.5912 23.4626 9.88001 24 7.65378 24C6.74005 24 5.88447 23.9339 5.08703 23.8016C4.28959 23.6859 3.60007 23.5123 3.0186 23.2808C2.53681 23.1155 2.19614 22.8757 1.99677 22.5615C1.79741 22.2474 1.70608 21.9166 1.7227 21.5693C1.73931 21.2221 1.83065 20.9079 1.99677 20.6268C2.17952 20.3457 2.42045 20.139 2.71947 20.0067C3.01852 19.891 3.35088 19.8992 3.71638 20.0315C4.44735 20.3292 5.11186 20.5194 5.70993 20.602C6.30799 20.7012 6.81474 20.7508 7.23007 20.7508C8.24351 20.7508 8.99955 20.5359 9.49796 20.1059C10.0129 19.6925 10.2705 19.0394 10.2705 18.1466V17.0196C9.98784 17.5207 9.54762 17.946 8.94968 18.2954C8.18545 18.7253 7.35468 18.9403 6.45754 18.9403C5.36109 18.9402 4.40584 18.6922 3.5918 18.1962C2.77774 17.6836 2.13805 16.9725 1.67287 16.0631C1.2243 15.1536 1 14.087 1 12.8634C1.00001 11.9374 1.13298 11.1024 1.39879 10.3583C1.6646 9.61423 2.03007 8.97764 2.49523 8.44852C2.97701 7.9194 3.55018 7.51422 4.2147 7.23312C4.89585 6.93549 5.6435 6.78661 6.45754 6.78661C7.38791 6.78661 8.21868 7.00159 8.94968 7.43151C9.51556 7.75692 9.93849 8.15824 10.2188 8.63523C10.2311 8.53186 10.2485 8.43278 10.2706 8.33791V5.30668C10.2706 4.56262 10.4699 3.99215 10.8686 3.5953C11.284 3.19845 11.8572 3 12.5882 3H18.7186ZM7.82819 10.0359C7.36304 10.0359 6.94774 10.1516 6.58226 10.3831C6.21676 10.598 5.93421 10.9205 5.73485 11.3504C5.5521 11.7637 5.46078 12.2681 5.46077 12.8634C5.46077 13.7563 5.67677 14.4508 6.10872 14.9469C6.54067 15.4429 7.11382 15.6909 7.82819 15.691C8.3266 15.691 8.75029 15.5835 9.09918 15.3686C9.44805 15.1371 9.72218 14.8146 9.92154 14.4013C10.1209 13.9714 10.2205 13.4586 10.2205 12.8634C10.2205 11.9705 10.0046 11.2761 9.57271 10.78C9.14076 10.2839 8.55919 10.0359 7.82819 10.0359ZM14.856 10.7385H17.8963C18.7768 10.7385 19.4496 10.5649 19.9147 10.2176C20.3799 9.87039 20.6125 9.33301 20.6125 8.60545C20.6125 7.91098 20.3799 7.3901 19.9147 7.04286C19.4496 6.67911 18.7767 6.49716 17.8963 6.49716H14.856V10.7385Z" fill="url(#paint0_linear_327_1631)"/>
<defs>
<linearGradient id="paint0_linear_327_1631" x1="1" y1="3" x2="21.8142" y2="26.7876" gradientUnits="userSpaceOnUse">
<stop stop-color="#5CC8A8"/>
<stop offset="1" stop-color="#3DAF8E"/>
</linearGradient>
</defs>
</svg>
